#!OML:ASF I:\Actors\actors\Patient Classification 2\Patient 1\Session 1\actor1.ASF
:FULLY-SPECIFIED
:DEGREES
498
root -0.850571 18.1057 5.37445 -2.46028 -6.96482 -5.29943
lowerback 16.0254 1.2032 -2.37134
upperback 4.80767 0.964754 -4.40071
thorax -3.82326 0.48039 -3.48955
lowerneck -9.39222 -7.45008 -5.03011
upperneck 32.1044 -15.8407 17.338
head 14.6846 -5.6845 5.44136
rclavicle 1.19271e-014 -7.4743e-014
rhumerus -38.1696 38.9562 -82.2172
rradius 124.034
rwrist -55.0034
rhand -16.2605 -46.2135
rfingers 7.12502
rthumb 9.94881 644.042
lclavicle 1.19271e-014 -7.4743e-014
lhumerus -8.5141 -42.1039 83.9231
lradius 105.286
lwrist 44.6778
lhand -21.7315 -19.3426
lfingers 7.12502
lthumb 4.66807 10.5859
rfemur 13.6797 -0.534114 20.4292
rtibia -7.20675
rfoot -9.71441 -10.1245
rtoes -0.71158
lfemur 21.9922 -1.17225 -12.0663
ltibia -22.3784
lfoot 0.650792 18.0435
ltoes -9.92561
499
root -0.845453 18.1036 5.39536 -2.52397 -7.018 -5.31018
lowerback 16.038 1.02378 -2.55031
upperback 4.96347 0.702734 -4.48814
thorax -3.6768 0.351245 -3.42859
lowerneck -8.8931 -7.68674 -5.47269
upperneck 32.4004 -16.1307 17.2167
head 14.7842 -5.90435 5.45102
rclavicle -2.38542e-015 -4.13472e-014
rhumerus -39.904 39.739 -82.6152
rradius 124.782
rwrist -56.5223
rhand -16.0704 -46.1519
rfingers 7.12502
rthumb 10.1322 644.112
lclavicle -2.38542e-015 -4.13472e-014
lhumerus -8.08819 -42.7156 83.2093
lradius 105.792
lwrist 45.4188
lhand -21.3182 -19.5166
lfingers 7.12502
lthumb 5.06713 10.4028
rfemur 13.9253 -0.506929 20.4081
rtibia -7.41706
rfoot -9.62941 -10.1842
rtoes -0.67344
lfemur 22.1677 -1.0542 -12.0762
ltibia -22.4224
lfoot 0.702206 17.9917
ltoes -10.3791
500
root -0.840559 18.1036 5.42048 -2.59232 -7.16248 -5.27496
lowerback 16.0315 0.89091 -2.75671
upperback 5.09688 0.496088 -4.61112
thorax -3.54052 0.248936 -3.40096
lowerneck -8.37742 -7.94956 -5.97529
upperneck 32.7022 -16.4984 17.2078
head 14.9231 -6.15622 5.50846
rclavicle 2.14687e-014 2.38542e-014
rhumerus -41.5448 40.5885 -82.976
rradius 125.45
rwrist -57.9156
rhand -15.722 -45.8687
rfingers 7.12502
rthumb 10.4683 644.412
lclavicle 2.14687e-014 2.38542e-014
lhumerus -7.62518 -43.4584 82.4189
lradius 106.359
lwrist 46.0493
lhand -21.0588 -19.553
lfingers 7.12502
lthumb 5.31754 10.3603
rfemur 14.1109 -0.386696 20.3469
rtibia -7.5024
rfoot -9.61069 -10.2202
rtoes -0.892716
lfemur 22.3729 -0.968469 -12.1564
ltibia -22.4446
lfoot 0.688061 18.0178
ltoes -10.7026
501
root -0.837376 18.1031 5.44889 -2.67902 -7.38409 -5.19525
lowerback 16.0813 0.810993 -2.99236
upperback 5.16654 0.345564 -4.7786
thorax -3.49882 0.174084 -3.41755
lowerneck -7.68836 -8.2134 -6.41717
upperneck 32.8693 -16.8767 17.249
head 14.9636 -6.41782 5.57271
rclavicle -4.05521e-014 0
rhumerus -43.2985 41.4134 -83.4639
rradius 126.094
rwrist -59.1981
rhand -14.9063 -45.0874
rfingers 7.12502
rthumb 11.2551 645.235
lclavicle -4.05521e-014 0
lhumerus -7.15889 -44.3663 81.5926
lradius 106.929
lwrist 46.6166
lhand -20.8718 -19.722
lfingers 7.12502
lthumb 5.49809 10.1867
rfemur 14.2433 -0.190314 20.2576
rtibia -7.43746
rfoot -9.67578 -10.1792
rtoes -0.88616
lfemur 22.6274 -0.86116 -12.2806
ltibia -22.4568
lfoot 0.618554 18.0996
ltoes -10.9315
502
root -0.835693 18.1021 5.47307 -2.75696 -7.54656 -5.29893
lowerback 16.2412 0.693518 -3.09404
upperback 5.20569 0.162658 -4.85283
thorax -3.5493 0.0833294 -3.40719
lowerneck -7.12281 -8.45713 -6.8181
upperneck 33.1491 -17.1974 17.1114
head 15.0498 -6.65522 5.56447
rclavicle -3.97569e-015 1.59028e-014
rhumerus -45.1638 42.2574 -83.9545
rradius 126.816
rwrist -60.7199
rhand -14.0296 -44.3096
rfingers 7.12502
rthumb 12.1006 646.06
lclavicle -3.97569e-015 1.59028e-014
lhumerus -6.73773 -45.2449 80.8898
lradius 107.531
lwrist 46.9931
lhand -20.7574 -19.7277
lfingers 7.12502
lthumb 5.6086 10.178
rfemur 14.3537 -0.0694773 20.3788
rtibia -7.31711
rfoot -9.72051 -10.15
rtoes -1.168
lfemur 22.8557 -0.771256 -12.1752
ltibia -22.4482
lfoot 0.545001 18.1782
ltoes -10.9299
503
root -0.832969 18.1015 5.49621 -2.78195 -7.69702 -5.50118
lowerback 16.286 0.563628 -3.16319
upperback 5.29716 -0.0164486 -4.83508
thorax -3.48271 -0.00609351 -3.3144
lowerneck -6.67649 -8.69604 -7.28002
upperneck 33.3893 -17.4911 16.9669
head 15.1478 -6.88272 5.56123
rclavicle 3.33958e-014 1.27222e-014
rhumerus -46.9397 43.0633 -84.3312
rradius 127.554
rwrist -62.5193
rhand -13.3876 -43.9047
rfingers 7.12502
rthumb 12.7195 646.503
lclavicle 3.33958e-014 1.27222e-014
lhumerus -6.27533 -46.0326 80.3205
lradius 108.103
lwrist 47.1768
lhand -20.5839 -19.774
lfingers 7.12502
lthumb 5.7761 10.1273
rfemur 14.3803 0.0340972 20.5992
rtibia -7.13847
rfoot -9.73747 -10.119
rtoes -1.31494
lfemur 23.0265 -0.744041 -11.9747
ltibia -22.4484
lfoot 0.477873 18.2579
ltoes -10.6377
504
root -0.82902 18.1011 5.52169 -2.74844 -7.86525 -5.58091
lowerback 16.2223 0.43566 -3.31429
upperback 5.37338 -0.202021 -4.86749
thorax -3.37378 -0.099048 -3.2261
lowerneck -6.1409 -8.92123 -7.79734
upperneck 33.429 -17.7721 16.9703
head 15.1544 -7.11055 5.62628
rclavicle -1.74931e-014 2.54444e-014
rhumerus -48.2066 43.4746 -84.282
rradius 128.019
rwrist -62.7708
rhand -9.80313 -45.4167
rfingers 7.12502
rthumb 16.1732 645.238
lclavicle -1.74931e-014 2.54444e-014
lhumerus -5.91872 -46.815 79.8471
lradius 108.626
lwrist 47.3616
lhand -20.36 -20.361
lfingers 7.12502
lthumb 5.99225 9.5343
rfemur 14.2753 0.167456 20.6775
rtibia -6.84293
rfoot -9.77683 -10.0085
rtoes -0.833644
lfemur 23.1413 -0.702864 -11.9242
ltibia -22.4754
lfoot 0.400406 18.3132
ltoes -10.4243
505
root -0.825236 18.1015 5.54761 -2.70525 -8.05769 -5.64328
lowerback 16.2172 0.311025 -3.47843
upperback 5.40901 -0.391508 -4.90369
thorax -3.33831 -0.193834 -3.13539
lowerneck -5.48187 -9.12202 -8.31378
upperneck 33.3228 -18.0118 17.0236
head 15.0616 -7.32848 5.71732
rclavicle -3.89618e-014 5.725e-014
rhumerus -49.4868 44.1172 -84.4424
rradius 128.464
rwrist -63.752
rhand -8.54991 -45.8293
rfingers 7.12502
rthumb 17.3797 644.928
lclavicle -3.89618e-014 5.725e-014
lhumerus -5.71037 -47.5849 79.4805
lradius 109.228
lwrist 47.5852
lhand -20.28 -20.8974
lfingers 7.12502
lthumb 6.06947 8.99565
rfemur 14.156 0.32449 20.7457
rtibia -6.54428
rfoot -9.78883 -9.90145
rtoes -0.574482
lfemur 23.2525 -0.612547 -11.8856
ltibia -22.4925
lfoot 0.299981 18.4315
ltoes -10.3138
506
root -0.821866 18.1045 5.575 -2.6879 -8.33607 -5.7412
lowerback 16.2024 0.21566 -3.6376
upperback 5.48504 -0.537454 -4.90939
thorax -3.25242 -0.267894 -3.02306
lowerneck -4.83758 -9.29358 -8.73719
upperneck 33.1372 -18.1741 16.9823
head 14.8942 -7.51015 5.75912
rclavicle 3.18055e-015 -1.27222e-014
rhumerus -50.6904 44.8308 -84.6426
rradius 128.884
rwrist -65.1773
rhand -8.1041 -45.3829
rfingers 7.12502
rthumb 17.8087 645.413
lclavicle 3.18055e-015 -1.27222e-014
lhumerus -5.51164 -48.2558 79.2557
lradius 109.836
lwrist 47.7697
lhand -20.2264 -20.998
lfingers 7.12502
lthumb 6.12126 8.89361
rfemur 14.0937 0.561087 20.87
rtibia -6.31252
rfoot -9.74782 -9.88071
rtoes -1.24071
lfemur 23.4257 -0.52005 -11.8137
ltibia -22.4993
lfoot 0.189877 18.6673
ltoes -10.143
507
root -0.819532 18.1067 5.59964 -2.703 -8.59653 -5.78078
lowerback 16.2459 0.13166 -3.85084
upperback 5.58203 -0.680748 -4.93918
thorax -3.17382 -0.341068 -2.90703
lowerneck -4.46015 -9.47869 -9.03444
upperneck 33.1121 -18.3391 16.75
head 14.8261 -7.67137 5.69225
rclavicle -2.94201e-014 1.59028e-014
rhumerus -52.4082 45.0375 -85.3683
rradius 129.513
rwrist -66.3095
rhand -7.31595 -45.0471
rfingers 7.12502
rthumb 18.5669 645.819
lclavicle -2.94201e-014 1.59028e-014
lhumerus -5.36878 -48.8398 79.1881
lradius 110.328
lwrist 47.9672
lhand -19.9995 -21.1184
lfingers 7.12502
lthumb 6.34032 8.76671
rfemur 14.0525 0.783992 20.9287
rtibia -6.06965
rfoot -9.80455 -9.85329
rtoes -1.81171
lfemur 23.6326 -0.50875 -11.816
ltibia -22.5377
lfoot 0.107258 18.9165
ltoes -9.91844
508
root -0.818512 18.1059 5.62086 -2.70898 -8.7826 -5.80749
lowerback 16.3419 0.0189158 -4.05663
upperback 5.64713 -0.867346 -4.99438
thorax -3.15736 -0.434983 -2.81471
lowerneck -4.30062 -9.68042 -9.31734
upperneck 33.3342 -18.549 16.4257
head 14.924 -7.83801 5.57844
rclavicle -2.38542e-015 2.54444e-014
rhumerus -54.7767 44.4772 -86.7928
rradius 130.402
rwrist -66.9838
rhand -6.33738 -45.2765
rfingers 7.12502
rthumb 19.508 645.682
lclavicle -2.38542e-015 2.54444e-014
lhumerus -5.40239 -49.3568 79.2708
lradius 110.808
lwrist 48.1437
lhand -19.6916 -21.2141
lfingers 7.12502
lthumb 6.63755 8.66184
rfemur 14.0304 0.93337 20.971
rtibia -5.88424
rfoot -9.90696 -9.81216
rtoes -1.88417
lfemur 23.8136 -0.546439 -11.8331
ltibia -22.6122
lfoot 0.0919769 19.1275
ltoes -10.0584
509
root -0.817747 18.1047 5.64128 -2.68646 -9.01705 -5.89884
lowerback 16.4162 -0.0970184 -4.14641
upperback 5.69355 -1.04226 -5.09826
thorax -3.15116 -0.522242 -2.84183
lowerneck -4.12843 -9.86445 -9.55325
upperneck 33.6418 -18.7824 16.1571
head 15.0709 -8.00451 5.48146
rclavicle -1.51076e-014 -7.63333e-014
rhumerus -56.4824 45.0666 -87.8378
rradius 130.931
rwrist -68.4274
rhand -6.06343 -44.6996
rfingers 7.12502
rthumb 19.7714 646.286
lclavicle -1.51076e-014 -7.63333e-014
lhumerus -5.50401 -49.9073 79.3976
lradius 111.235
lwrist 48.1763
lhand -19.472 -21.2726
lfingers 7.12502
lthumb 6.84954 8.5966
rfemur 14.0718 1.12491 21.0926
rtibia -5.89345
rfoot -9.8617 -9.81635
rtoes -1.83526
lfemur 23.98 -0.424361 -11.7485
ltibia -22.7081
lfoot 0.133906 19.2446
ltoes -10.4724
510
root -0.815264 18.1012 5.65885 -2.715 -9.27624 -5.96249
lowerback 16.7167 -0.101289 -4.69502
upperback 5.6572 -1.15142 -4.88306
thorax -3.33461 -0.578124 -2.28252
lowerneck -3.80964 -10.0768 -10.0708
upperneck 33.8661 -18.9633 15.7927
head 15.1515 -8.19906 5.40273
rclavicle 8.74653e-015 1.27222e-014
rhumerus -58.1709 45.8191 -88.4077
rradius 131.414
rwrist -70.1115
rhand -5.63337 -43.8781
rfingers 7.12502
rthumb 20.1848 647.151
lclavicle 8.74653e-015 1.27222e-014
lhumerus -5.88316 -50.2792 80.316
lradius 111.488
lwrist 48.059
lhand -19.2448 -21.398
lfingers 7.12502
lthumb 7.06885 8.46397
rfemur 14.2404 1.34645 21.1696
rtibia -6.07878
rfoot -9.7475 -9.84408
rtoes -1.59105
lfemur 24.2073 -0.293213 -11.6963
ltibia -22.8278
lfoot 0.0903224 19.3776
ltoes -10.4124
511
root -0.812561 18.0962 5.67551 -2.77125 -9.5292 -5.94985
lowerback 16.8993 -0.141606 -5.20523
upperback 5.71467 -1.29297 -4.76185
thorax -3.35498 -0.651474 -1.83879
lowerneck -3.53027 -10.2633 -10.5734
upperneck 33.9381 -19.1159 15.5374
head 15.1767 -8.37109 5.36327
rclavicle 9.54166e-015 2.22639e-014
rhumerus -59.7458 45.5567 -89.2058
rradius 131.883
rwrist -71.4414
rhand -4.49495 -43.844
rfingers 7.12502
rthumb 21.2786 647.304
lclavicle 9.54166e-015 2.22639e-014
lhumerus -6.07704 -50.5553 80.9932
lradius 111.71
lwrist 48.0401
lhand -18.9016 -21.3454
lfingers 7.12502
lthumb 7.40012 8.50523
rfemur 14.5087 1.56954 21.1541
rtibia -6.42835
rfoot -9.61006 -9.92069
rtoes -1.51911
lfemur 24.4593 -0.253977 -11.7543
ltibia -22.9644
lfoot 0.00750963 19.5843
ltoes -10.0893
